# xmcd CD database file
#
# Track frame offsets:
#	150
#	14029
#	26495
#	39590
#	51799
#	64461
#	78687
#	90630
#	103383
#	118307
#	130928
#	143940
#	158287
#	170124
#	182455
#	195343
#	208186
#	220143
#	232838
#	244520
#	256736
#	269431
#
# Disc length: 3749 seconds
#
# Revision: 0
# Processed by: cddbd v1.4PL0 Copyright (c) Steve Scherf et al.
# Submitted via: CDex 1.50
#
DISCID=3d0ea316
DTITLE=Fiddlin' Doc Roberts - Volume 3 (1930-1934)
DYEAR=1900
DGENRE=Old-Time
TTITLE0=The Drunken Man's Dream
TTITLE1=The Waggoner
TTITLE2=Did You Ever See The Devil, Uncle Joe
TTITLE3=Shortnin' Bread
TTITLE4=Sally Ann
TTITLE5=Farewell Waltz
TTITLE6=Wednesday Night Waltz
TTITLE7=Turkey In The Straw
TTITLE8=I Don't Love Nobody
TTITLE9=Over The Waves
TTITLE10=The Girl I Left Behind Me
TTITLE11=99 Years
TTITLE12=Carroll County Blues
TTITLE13=Charleston Number 1
TTITLE14=Cumberland Gap
TTITLE15=Cumberland Blues
TTITLE16=Down Yonder
TTITLE17=Honeymoon Stomp
TTITLE18=Pickin' And Playin'
TTITLE19=Blue Grass Rag
TTITLE20='Way Down South
TTITLE21=Coal Tipple Blues
EXTD=
EXTT0=
EXTT1=
EXTT2=
EXTT3=
EXTT4=
EXTT5=
EXTT6=
EXTT7=
EXTT8=
EXTT9=
EXTT10=
EXTT11=
EXTT12=
EXTT13=
EXTT14=
EXTT15=
EXTT16=
EXTT17=
EXTT18=
EXTT19=
EXTT20=
EXTT21=
PLAYORDER=
